<?xml version="1.0" standalone="no"?>
<!DOCTYPE svg PUBLIC "-//W3C//DTD SVG 20010904//EN"
 "http://www.w3.org/TR/2001/REC-SVG-20010904/DTD/svg10.dtd">
<svg version="1.0" xmlns="http://www.w3.org/2000/svg"
 width="2132.000000pt" height="2132.000000pt" viewBox="0 0 2132.000000 2132.000000"
 preserveAspectRatio="xMidYMid meet">
<metadata>
Created by potrace 1.11, written by Peter Selinger 2001-2013
</metadata>
<g transform="translate(0.000000,2132.000000) scale(0.100000,-0.100000)"
fill="#000000" stroke="none">
<path d="M1828 20465 c-2 -1 -46 -5 -98 -9 -52 -3 -105 -8 -116 -10 -12 -2
-39 -7 -60 -10 -65 -11 -176 -43 -239 -70 -16 -7 -56 -23 -87 -35 -84 -33
-258 -133 -345 -197 -89 -66 -257 -231 -326 -321 -91 -118 -214 -342 -247
-448 -7 -22 -16 -44 -20 -50 -5 -5 -9 -13 -9 -17 -1 -5 -1 -9 -2 -10 0 -2 -2
-10 -4 -19 -1 -9 -10 -41 -18 -70 -32 -112 -42 -206 -42 -404 0 -172 8 -286
25 -344 5 -17 7 -31 5 -31 -2 0 2 -18 10 -40 8 -22 13 -41 12 -43 0 -1 14 -45
33 -97 155 -432 458 -768 869 -966 100 -48 306 -121 369 -130 21 -3 42 -7 49
-9 28 -9 188 -20 303 -19 153 0 246 9 369 36 157 33 215 12 299 -110 51 -73
272 -397 432 -632 41 -60 171 -251 289 -423 402 -588 436 -638 451 -660 8 -13
30 -45 48 -72 17 -27 32 -60 32 -74 0 -15 4 -32 9 -39 23 -37 -26 -122 -309
-535 -157 -230 -335 -490 -396 -580 -60 -89 -159 -234 -220 -322 -60 -89 -165
-243 -234 -344 -254 -373 -257 -376 -307 -401 -49 -25 -98 -29 -173 -17 -190
31 -465 27 -634 -9 -39 -9 -78 -17 -87 -19 -107 -23 -372 -143 -501 -228 -179
-118 -348 -288 -470 -472 -138 -207 -235 -462 -266 -695 -14 -110 -7 -449 11
-540 33 -161 86 -308 164 -459 56 -107 126 -216 184 -286 67 -81 248 -252 325
-307 190 -136 471 -257 665 -288 193 -30 455 -33 593 -5 12 2 60 11 109 21 73
14 96 15 141 5 66 -15 90 -37 182 -172 39 -57 223 -327 408 -599 186 -272 360
-526 386 -565 27 -38 102 -149 167 -245 65 -96 121 -177 124 -180 17 -15 129
-195 130 -209 0 -9 3 -25 5 -36 6 -25 6 -35 0 -60 -2 -11 -5 -26 -5 -32 -1
-12 -84 -138 -296 -448 -49 -71 -175 -256 -280 -410 -105 -154 -239 -350 -297
-435 -58 -85 -120 -175 -137 -200 -17 -25 -55 -81 -85 -125 -153 -228 -289
-423 -311 -446 -51 -55 -124 -73 -225 -56 -100 17 -151 20 -275 21 -122 1
-259 -7 -315 -19 -14 -3 -41 -8 -60 -11 -44 -7 -185 -51 -227 -70 -17 -8 -34
-14 -38 -14 -21 0 -242 -120 -330 -178 -113 -76 -291 -244 -376 -354 -177
-231 -304 -532 -337 -798 -10 -76 -9 -391 1 -469 9 -70 41 -214 56 -252 5 -13
24 -62 42 -109 38 -99 103 -226 167 -325 115 -179 312 -372 497 -487 368 -228
727 -302 1177 -243 233 31 591 194 783 356 54 46 202 195 243 244 87 106 188
278 249 424 58 141 95 181 184 197 24 4 370 8 769 9 753 1 770 0 839 -41 30
-18 91 -109 91 -136 0 -23 118 -250 170 -328 63 -95 113 -153 220 -260 148
-149 274 -236 470 -329 314 -147 632 -188 1015 -130 69 11 280 74 300 89 6 5
13 9 17 9 8 1 106 44 146 63 48 24 233 145 278 183 81 67 226 216 285 295 65
86 150 231 198 340 66 150 83 179 120 203 20 14 52 28 71 33 58 13 1596 12
1657 -2 87 -20 121 -57 173 -192 35 -88 32 -80 101 -232 30 -63 75 -153 101
-199 27 -46 48 -85 48 -87 0 -14 150 -241 224 -339 67 -89 72 -95 178 -215
469 -534 1085 -915 1793 -1109 115 -31 281 -65 375 -76 30 -3 62 -8 70 -10 8
-2 49 -7 90 -10 41 -4 93 -9 115 -11 58 -7 480 -7 545 0 192 20 275 31 330 41
14 3 39 7 55 10 353 60 793 234 1160 459 359 220 725 555 996 911 333 438 603
1038 700 1555 12 63 23 123 25 134 2 10 6 44 10 75 3 31 8 64 10 74 2 10 6 57
9 105 4 48 9 105 11 127 3 22 5 1163 6 2536 0 1829 3 2509 12 2545 21 94 71
144 157 160 24 4 257 8 518 8 l475 1 228 910 c126 501 231 918 233 928 3 9 7
25 9 35 29 118 178 537 241 677 91 203 180 386 250 510 60 107 181 304 239
390 53 78 222 311 236 325 3 3 43 52 89 110 47 58 88 107 91 110 3 3 33 39 66
80 349 436 624 985 773 1542 47 177 72 313 106 568 27 211 28 805 1 970 -3 14
-7 50 -10 80 -37 332 -142 712 -298 1080 -42 98 -180 376 -209 420 -9 14 -42
70 -75 125 -32 55 -61 102 -64 105 -3 3 -34 48 -69 100 -36 52 -67 97 -70 100
-3 3 -30 36 -59 75 -52 68 -98 123 -192 229 -64 72 -267 273 -329 326 -29 25
-65 56 -79 69 -180 165 -532 396 -827 542 -249 124 -333 158 -575 239 -224 75
-316 98 -570 145 -18 3 -96 15 -130 20 -14 2 -54 7 -90 10 -36 4 -73 9 -83 11
-111 21 -730 21 -844 0 -10 -2 -49 -7 -86 -11 -37 -3 -76 -8 -85 -10 -9 -1
-39 -6 -66 -9 -42 -6 -107 -17 -241 -41 -16 -3 -75 -17 -130 -31 -55 -15 -104
-27 -110 -29 -5 -1 -17 -5 -25 -8 -8 -3 -39 -13 -69 -21 -219 -63 -616 -237
-856 -376 -85 -49 -347 -220 -390 -254 -11 -9 -45 -35 -75 -58 -30 -23 -57
-45 -60 -48 -3 -3 -30 -25 -60 -50 -210 -172 -480 -455 -657 -687 -92 -120
-226 -320 -258 -383 -9 -19 -23 -42 -31 -50 -24 -28 -198 -382 -246 -500 -45
-112 -121 -315 -124 -335 -1 -5 -16 -57 -33 -115 -28 -91 -53 -192 -67 -268
-10 -54 -24 -140 -29 -177 -4 -22 -8 -51 -10 -65 -2 -14 -7 -47 -10 -75 -3
-27 -8 -66 -10 -85 -28 -227 -27 -706 0 -940 2 -19 7 -58 10 -87 5 -45 43
-274 60 -358 3 -16 19 -81 36 -143 102 -382 262 -757 472 -1107 70 -116 219
-337 252 -371 5 -6 21 -26 35 -45 14 -18 39 -49 56 -69 17 -19 42 -48 55 -65
13 -16 36 -41 50 -56 14 -15 61 -71 105 -125 43 -55 84 -104 89 -110 6 -6 16
-20 23 -30 7 -11 43 -62 80 -114 260 -365 467 -778 654 -1305 27 -77 51 -149
53 -159 3 -11 13 -47 24 -80 36 -115 53 -171 56 -186 2 -8 11 -41 20 -74 9
-32 18 -64 19 -70 1 -6 5 -20 9 -31 3 -11 8 -31 11 -45 3 -14 18 -77 35 -141
16 -63 32 -126 35 -140 2 -13 7 -31 10 -39 3 -8 8 -26 10 -40 3 -14 71 -286
151 -605 80 -319 147 -587 147 -595 2 -13 61 -15 477 -15 494 1 553 -3 603
-41 36 -26 68 -76 76 -116 10 -46 9 -5025 -1 -5123 -7 -76 -11 -108 -22 -165
-3 -14 -7 -43 -11 -65 -3 -22 -12 -66 -20 -98 -8 -32 -19 -77 -24 -100 -16
-81 -59 -223 -100 -337 -157 -430 -464 -878 -806 -1175 -111 -96 -117 -101
-219 -175 -317 -230 -620 -365 -1000 -446 -62 -14 -120 -24 -162 -30 -26 -3
-56 -8 -66 -10 -29 -5 -246 -17 -312 -17 -71 1 -251 11 -280 17 -11 2 -42 7
-70 10 -48 6 -70 10 -125 22 -14 3 -36 7 -50 10 -333 68 -633 185 -895 347
-74 46 -285 196 -325 232 -178 157 -303 284 -390 400 -25 33 -51 66 -58 74
-66 70 -322 517 -322 563 0 8 -4 18 -9 23 -16 18 -71 187 -111 340 -34 135
-56 243 -77 390 -7 52 -11 2061 -16 8545 -1 2137 -5 3894 -9 3906 -3 11 -9 47
-12 80 -4 32 -9 68 -11 79 -2 11 -7 38 -10 60 -3 22 -7 47 -10 55 -2 8 -6 31
-9 50 -18 123 -130 436 -226 635 -78 161 -204 375 -272 460 -4 6 -29 37 -55
70 -26 33 -52 65 -58 71 -5 6 -30 35 -55 64 -102 119 -312 315 -435 405 -22
17 -42 32 -45 35 -3 3 -12 10 -21 15 -9 6 -41 26 -70 46 -207 140 -506 284
-744 360 -81 27 -232 67 -275 74 -19 3 -66 13 -104 22 -91 20 -130 59 -170
168 -62 171 -193 400 -297 520 -62 71 -191 198 -236 231 -21 16 -40 32 -43 35
-9 12 -175 115 -235 146 -66 34 -207 94 -276 117 -305 99 -734 93 -1032 -16
-310 -113 -550 -279 -752 -519 -65 -77 -177 -245 -192 -288 -4 -9 -16 -29 -27
-46 -12 -16 -20 -32 -19 -35 1 -3 -7 -24 -17 -47 -10 -22 -21 -52 -25 -65 -13
-42 -58 -106 -88 -123 -66 -39 -98 -41 -842 -40 -396 1 -740 5 -764 9 -88 16
-125 56 -182 192 -41 99 -100 211 -150 288 -22 32 -39 62 -39 66 0 5 -3 10 -7
12 -5 2 -28 28 -53 58 -43 54 -176 189 -238 242 -177 153 -535 325 -735 353
-23 3 -67 10 -97 14 -30 5 -77 10 -105 11 -146 6 -185 7 -187 5z m142 -859
c75 -10 227 -54 282 -82 61 -30 178 -116 226 -165 52 -53 131 -174 159 -242
73 -178 86 -356 40 -538 -28 -109 -58 -172 -126 -268 -115 -160 -276 -272
-451 -312 -25 -6 -54 -13 -65 -15 -89 -21 -161 -24 -255 -10 -63 9 -219 55
-261 76 -150 77 -296 224 -372 376 -67 133 -101 363 -72 490 8 32 16 70 19 84
15 86 60 180 131 275 71 95 93 116 190 186 120 86 260 135 420 146 39 3 72 7
74 9 2 2 7 2 10 0 3 -2 26 -7 51 -10z m4955 3 c77 -3 258 -50 326 -84 209
-106 366 -300 423 -522 25 -97 28 -115 30 -198 3 -95 -30 -262 -69 -351 -22
-50 -67 -126 -85 -144 -3 -3 -17 -21 -32 -40 -48 -63 -72 -86 -151 -144 -94
-69 -157 -99 -264 -126 -175 -43 -256 -44 -417 -4 -123 30 -188 59 -279 126
-225 162 -343 398 -341 678 0 171 57 341 159 476 64 85 99 120 181 179 110 80
242 130 394 151 25 3 47 8 49 10 2 2 7 2 10 0 4 -3 33 -5 66 -7z m10190 -4
c88 -3 180 -8 205 -11 52 -6 263 -41 300 -49 14 -4 36 -8 50 -11 313 -63 678
-202 948 -361 105 -61 295 -187 326 -215 11 -10 38 -30 60 -45 23 -15 43 -31
46 -34 3 -3 34 -30 70 -59 99 -82 316 -303 406 -415 252 -313 425 -610 546
-940 101 -273 179 -619 206 -910 14 -154 6 -526 -13 -650 -3 -16 -7 -48 -10
-70 -3 -22 -7 -51 -10 -65 -2 -14 -7 -36 -9 -50 -33 -191 -129 -540 -171 -621
-9 -16 -12 -29 -8 -29 4 0 2 -5 -5 -12 -7 -7 -12 -18 -12 -24 0 -21 -118 -268
-180 -379 -53 -94 -255 -394 -280 -415 -3 -3 -21 -25 -40 -50 -19 -25 -37 -47
-41 -50 -3 -3 -43 -50 -88 -105 -104 -127 -99 -120 -151 -190 -25 -33 -50 -66
-57 -73 -30 -31 -308 -460 -373 -576 -87 -152 -128 -199 -190 -217 -36 -10
-378 -13 -1655 -14 -1666 -1 -1677 0 -1738 39 -23 16 -77 78 -77 89 0 3 -34
65 -76 139 -165 286 -408 628 -584 819 -187 202 -388 497 -521 760 -146 292
-261 672 -315 1044 -3 17 -7 44 -9 60 -29 202 -25 583 10 825 60 429 187 816
376 1154 54 95 215 342 239 366 3 3 18 23 35 45 285 388 754 769 1220 990 167
80 410 171 505 189 14 3 41 10 60 16 19 6 46 13 60 15 14 2 63 12 110 23 47
11 105 23 130 27 25 3 72 10 105 15 93 14 140 19 275 26 69 4 126 8 128 9 2 2
11 1 20 -1 9 -1 89 -6 177 -9z m-11982 -1249 c62 -10 102 -31 135 -72 18 -21
32 -42 32 -47 0 -29 133 -292 193 -382 107 -161 101 -195 -76 -455 -69 -102
-183 -268 -252 -370 -70 -102 -168 -246 -219 -320 -50 -74 -125 -184 -166
-245 -41 -60 -77 -112 -80 -115 -3 -3 -36 -52 -75 -110 -92 -137 -133 -177
-193 -186 -26 -5 -49 -7 -52 -7 -3 1 -22 4 -43 7 -59 9 -100 48 -189 180 -46
66 -115 168 -155 226 -39 58 -116 170 -169 250 -54 80 -101 147 -104 150 -3 3
-32 46 -66 95 -33 50 -143 211 -243 358 -244 358 -247 370 -130 549 60 92 156
280 178 348 14 44 64 106 101 125 16 8 52 18 81 23 62 8 1438 7 1492 -2z
m3603 -87 c371 -102 791 -389 1021 -697 32 -43 60 -79 63 -82 7 -6 78 -114
103 -155 16 -27 116 -231 138 -280 12 -28 58 -173 63 -199 2 -12 13 -57 24
-101 20 -79 27 -111 38 -190 3 -22 8 -51 11 -65 4 -14 7 -1050 9 -2303 1
-1675 -1 -2289 -10 -2320 -23 -86 -72 -136 -151 -152 -66 -14 -1371 -13 -1432
1 -87 20 -117 53 -174 190 -111 266 -285 502 -498 674 -24 19 -48 40 -55 45
-33 31 -194 125 -291 171 -128 61 -305 122 -379 130 -28 4 -54 8 -57 10 -12 7
-181 18 -284 18 -118 -1 -189 -6 -300 -24 -95 -15 -155 0 -204 50 -20 21 -107
143 -194 271 -88 129 -187 275 -221 324 -93 136 -248 363 -355 520 -95 141
-156 230 -254 373 -30 42 -93 136 -142 207 -49 72 -121 178 -162 238 -86 125
-104 181 -85 254 13 47 44 98 212 343 51 74 140 205 198 290 59 85 122 178
142 206 19 28 62 91 95 140 33 49 63 94 68 99 4 6 43 62 85 125 43 63 103 151
133 195 30 44 121 177 202 295 81 118 153 222 160 230 44 56 137 81 217 60 54
-14 60 -16 130 -25 30 -4 64 -9 75 -12 40 -9 322 -10 390 -2 158 19 162 20
285 56 476 139 880 498 1075 953 62 145 148 184 311 139z m-4259 -4083 c47
-26 57 -37 145 -166 47 -69 113 -165 148 -215 34 -49 104 -153 156 -230 53
-77 164 -241 249 -365 85 -124 209 -306 276 -405 67 -99 130 -190 140 -203 9
-12 22 -45 29 -72 20 -83 2 -135 -83 -240 -57 -70 -178 -290 -212 -385 -26
-72 -64 -130 -99 -151 -17 -10 -33 -18 -36 -18 -3 0 -23 -5 -45 -11 -47 -13
-1452 -14 -1524 -1 -25 5 -59 18 -77 29 -33 22 -76 84 -89 127 -27 91 -154
314 -268 472 -39 53 -52 114 -38 177 6 26 48 100 116 199 166 245 286 420 345
505 30 43 60 86 65 95 9 16 285 419 476 698 51 73 102 136 123 150 20 14 36
22 36 20 0 -3 10 -1 23 4 29 13 109 5 144 -14z m13594 -2071 c124 -19 197
-133 163 -255 -8 -30 -17 -62 -19 -71 -2 -9 -13 -46 -24 -84 -12 -37 -23 -77
-25 -89 -3 -11 -30 -120 -61 -241 -31 -121 -58 -227 -60 -235 -44 -202 -141
-559 -157 -584 -29 -44 -73 -72 -128 -82 -76 -13 -1538 -12 -1590 2 -103 27
-140 68 -166 189 -10 50 -155 627 -191 760 -25 94 -47 177 -48 185 -2 8 -21
69 -41 135 -49 156 -51 227 -8 288 31 44 76 72 134 82 19 3 35 7 36 8 6 6
2147 -2 2185 -8z m-16016 -25 c28 -6 59 -13 70 -16 125 -25 322 -161 411 -283
86 -120 111 -174 150 -331 34 -137 28 -249 -23 -430 -66 -235 -301 -462 -542
-525 -127 -33 -272 -46 -336 -31 -11 2 -42 9 -70 15 -214 48 -361 143 -496
321 -74 97 -115 203 -148 380 -11 54 -8 210 3 228 3 6 8 27 12 47 14 90 78
242 122 292 10 10 33 39 52 63 60 76 180 171 270 212 68 31 207 68 280 75 36
3 66 6 67 7 5 4 132 -13 178 -24z m5045 -10 c180 -48 326 -147 437 -295 71
-94 106 -165 131 -260 31 -117 33 -132 37 -220 3 -96 -32 -267 -75 -362 -26
-58 -111 -180 -159 -231 -39 -40 -165 -129 -226 -160 -126 -64 -385 -103 -482
-73 -18 5 -33 8 -33 6 0 -3 -11 0 -25 5 -14 5 -37 12 -51 14 -94 17 -268 118
-349 202 -56 58 -123 152 -157 217 -64 127 -102 358 -78 477 17 82 19 92 35
149 15 51 87 199 103 211 4 3 19 21 34 40 103 137 299 261 442 282 3 1 27 7
53 14 72 21 257 12 363 -16z m-1950 -1224 c58 -13 104 -45 133 -90 15 -24 27
-48 27 -54 0 -26 112 -247 171 -338 75 -116 93 -173 74 -243 -11 -41 -163
-271 -525 -796 -22 -33 -104 -152 -180 -265 -76 -113 -143 -209 -147 -215 -5
-5 -40 -57 -78 -115 -64 -95 -142 -186 -152 -176 -2 2 -23 -2 -46 -9 -49 -14
-117 0 -166 34 -16 12 -77 92 -136 179 -59 86 -171 252 -250 367 -79 116 -188
275 -243 355 -54 80 -168 246 -252 370 -171 249 -188 288 -168 369 6 25 35 82
64 126 62 96 128 218 155 289 55 143 103 197 184 210 21 4 40 8 41 9 7 6 1464
0 1494 -7z m4889 0 c78 -14 140 -70 157 -141 13 -52 15 -6273 2 -6330 -12 -55
-56 -118 -97 -139 -14 -8 -49 -17 -76 -22 -64 -9 -1327 -9 -1392 1 -66 10
-114 39 -146 89 -15 24 -27 46 -27 50 0 4 -9 27 -20 52 -11 24 -30 65 -41 92
-22 49 -127 233 -139 242 -3 3 -17 21 -30 40 -52 74 -198 226 -299 310 -57 48
-178 130 -191 130 -4 0 -13 7 -20 15 -7 9 -15 13 -18 10 -3 -3 -10 -1 -17 5
-49 41 -358 161 -449 175 -21 3 -48 7 -60 10 -146 31 -461 26 -635 -10 -34 -7
-125 19 -157 44 -27 21 -44 45 -242 336 -197 288 -248 363 -383 560 -72 105
-168 246 -215 315 -47 69 -154 225 -237 347 -316 463 -346 509 -350 538 -3 17
-6 35 -8 40 -1 6 2 33 9 62 8 36 32 82 80 150 70 101 251 366 376 553 39 58
73 107 77 110 3 3 43 61 89 130 46 69 95 141 109 161 14 20 32 45 39 55 44 65
249 366 259 381 7 10 71 103 142 206 133 196 168 231 233 241 21 3 41 7 45 8
4 1 33 -4 63 -12 60 -15 63 -15 135 -25 313 -39 557 -22 790 57 146 48 423
191 491 253 7 5 29 24 50 40 61 48 225 214 275 280 90 117 158 237 228 400 59
140 89 171 184 190 60 12 1350 13 1416 1z m-5543 -4178 c18 -13 46 -42 62 -64
30 -41 186 -270 212 -310 8 -13 87 -128 175 -256 310 -452 420 -614 440 -647
6 -9 13 -18 16 -21 3 -3 51 -72 107 -155 66 -98 105 -166 113 -197 19 -79 -4
-142 -91 -245 -18 -21 -116 -185 -143 -239 -14 -28 -42 -91 -62 -140 -53 -127
-92 -165 -189 -179 -63 -10 -1422 -10 -1497 -1 -91 11 -151 62 -184 156 -44
124 -146 304 -275 483 -30 42 -34 54 -34 115 -1 63 2 74 39 133 21 35 43 69
48 74 5 6 67 96 137 200 71 105 133 195 137 200 5 6 37 53 72 105 36 52 122
178 191 280 212 309 329 481 388 569 95 142 141 174 246 167 41 -3 68 -11 92
-28z m-2476 -2079 c162 -32 250 -70 360 -155 82 -63 107 -88 160 -159 67 -91
120 -198 136 -279 29 -147 34 -186 29 -253 -5 -86 -39 -228 -70 -300 -70 -157
-224 -317 -383 -397 -47 -24 -186 -66 -267 -81 -137 -25 -394 28 -513 107 -24
15 -47 28 -52 28 -4 0 -10 3 -12 8 -1 4 -23 23 -48 42 -134 105 -232 267 -275
457 -56 250 13 525 180 712 111 124 253 216 381 246 10 2 39 10 64 16 110 27
198 30 310 8z m4965 7 c202 -32 380 -122 503 -258 54 -59 127 -171 151 -231
54 -138 80 -317 60 -424 -5 -26 -11 -58 -14 -71 -23 -126 -88 -260 -174 -362
-108 -127 -256 -219 -421 -262 -88 -23 -265 -31 -341 -16 -139 28 -213 57
-314 124 -95 63 -140 105 -210 199 -70 93 -100 155 -131 272 -77 288 6 595
215 799 54 53 197 155 223 160 7 1 29 9 49 18 20 8 47 17 60 20 13 2 32 7 41
11 60 24 213 34 303 21z"/>
</g>
</svg>
